<svg xmlns="http://www.w3.org/2000/svg" xmlns:xlink="http://www.w3.org/1999/xlink" width="579px" height="373px" version="1.1"><defs/><g transform="translate(0.5,0.5)"><rect x="331" y="61" width="80" height="20" fill="#ffffff" stroke="#000000" pointer-events="none"/><rect x="411" y="61" width="80" height="20" fill="#ffffff" stroke="#000000" pointer-events="none"/><rect x="491" y="61" width="80" height="20" fill="#ffffff" stroke="#000000" pointer-events="none"/><rect x="251" y="61" width="80" height="20" fill="#ffffff" stroke="#000000" pointer-events="none"/><rect x="91" y="141" width="240" height="10" fill="#ffffff" stroke="#000000" pointer-events="none"/><rect x="91" y="151" width="240" height="10" fill="#ffffff" stroke="#000000" pointer-events="none"/><rect x="91" y="161" width="240" height="10" fill="#ffffff" stroke="#000000" pointer-events="none"/><rect x="91" y="171" width="240" height="10" fill="#ffffff" stroke="#000000" pointer-events="none"/><rect x="91" y="181" width="240" height="10" fill="#ffffff" stroke="#000000" pointer-events="none"/><rect x="91" y="191" width="240" height="10" fill="#ffffff" stroke="#000000" pointer-events="none"/><rect x="91" y="201" width="240" height="10" fill="#ffffff" stroke="#000000" pointer-events="none"/><rect x="91" y="211" width="240" height="10" fill="#ffffff" stroke="#000000" pointer-events="none"/><rect x="91" y="221" width="240" height="10" fill="#ffffff" stroke="#000000" pointer-events="none"/><rect x="91" y="231" width="240" height="10" fill="#ffffff" stroke="#000000" pointer-events="none"/><rect x="91" y="241" width="240" height="10" fill="#ffffff" stroke="#000000" pointer-events="none"/><rect x="91" y="251" width="240" height="10" fill="#ffffff" stroke="#000000" pointer-events="none"/><rect x="91" y="261" width="240" height="10" fill="#ffffff" stroke="#000000" pointer-events="none"/><rect x="91" y="271" width="240" height="10" fill="#ffffff" stroke="#000000" pointer-events="none"/><rect x="91" y="281" width="240" height="10" fill="#ffffff" stroke="#000000" pointer-events="none"/><rect x="91" y="291" width="240" height="10" fill="#ffffff" stroke="#000000" pointer-events="none"/><rect x="91" y="351" width="240" height="20" fill="#ffffff" stroke="#000000" pointer-events="none"/><rect x="411" y="351" width="80" height="20" fill="#ffffff" stroke="#000000" pointer-events="none"/><rect x="491" y="351" width="80" height="20" fill="#ffffff" stroke="#000000" pointer-events="none"/><rect x="331" y="351" width="80" height="20" fill="#ffffff" stroke="#000000" pointer-events="none"/><path d="M 531 81 L 531 343" fill="none" stroke="#000000" stroke-miterlimit="10" pointer-events="none"/><path d="M 531 350 L 528 343 L 535 343 Z" fill="#000000" stroke="#000000" stroke-miterlimit="10" pointer-events="none"/><path d="M 451 81 L 451 343" fill="none" stroke="#000000" stroke-miterlimit="10" pointer-events="none"/><path d="M 451 350 L 448 343 L 455 343 Z" fill="#000000" stroke="#000000" stroke-miterlimit="10" pointer-events="none"/><path d="M 371 81 L 371 343" fill="none" stroke="#000000" stroke-miterlimit="10" pointer-events="none"/><path d="M 371 350 L 368 343 L 375 343 Z" fill="#000000" stroke="#000000" stroke-miterlimit="10" pointer-events="none"/><path d="M 211 301 L 211 343" fill="none" stroke="#000000" stroke-miterlimit="10" pointer-events="none"/><path d="M 211 350 L 208 343 L 215 343 Z" fill="#000000" stroke="#000000" stroke-miterlimit="10" pointer-events="none"/><path d="M 81 301 L 81 141" fill="none" stroke="#000000" stroke-width="4" stroke-miterlimit="10" pointer-events="none"/><path d="M 291 81 L 291 111 L 51 111 L 51 231 L 75 231" fill="none" stroke="#000000" stroke-miterlimit="10" pointer-events="none"/><path d="M 80 231 L 73 235 L 75 231 L 73 228 Z" fill="#000000" stroke="#000000" stroke-miterlimit="10" pointer-events="none"/><rect x="551" y="41" width="20" height="20" fill="none" stroke="none" pointer-events="none"/><g fill="#000000" font-family="Verdana" text-anchor="middle" font-size="12px"><text x="561" y="55">0</text></g><rect x="491" y="41" width="20" height="20" fill="none" stroke="none" pointer-events="none"/><g fill="#000000" font-family="Verdana" text-anchor="middle" font-size="12px"><text x="501" y="55">3</text></g><rect x="471" y="41" width="20" height="20" fill="none" stroke="none" pointer-events="none"/><g fill="#000000" font-family="Verdana" text-anchor="middle" font-size="12px"><text x="481" y="55">4</text></g><rect x="311" y="41" width="20" height="20" fill="none" stroke="none" pointer-events="none"/><g fill="#000000" font-family="Verdana" text-anchor="middle" font-size="12px"><text x="321" y="55">12</text></g><rect x="251" y="41" width="20" height="20" fill="none" stroke="none" pointer-events="none"/><g fill="#000000" font-family="Verdana" text-anchor="middle" font-size="12px"><text x="261" y="55">15</text></g><rect x="391" y="41" width="20" height="20" fill="none" stroke="none" pointer-events="none"/><g fill="#000000" font-family="Verdana" text-anchor="middle" font-size="12px"><text x="401" y="55">8</text></g><rect x="331" y="41" width="20" height="20" fill="none" stroke="none" pointer-events="none"/><g fill="#000000" font-family="Verdana" text-anchor="middle" font-size="12px"><text x="341" y="55">11</text></g><rect x="411" y="41" width="20" height="20" fill="none" stroke="none" pointer-events="none"/><g fill="#000000" font-family="Verdana" text-anchor="middle" font-size="12px"><text x="421" y="55">7</text></g><rect x="551" y="331" width="20" height="20" fill="none" stroke="none" pointer-events="none"/><g fill="#000000" font-family="Verdana" text-anchor="middle" font-size="12px"><text x="561" y="345">0</text></g><rect x="491" y="331" width="20" height="20" fill="none" stroke="none" pointer-events="none"/><g fill="#000000" font-family="Verdana" text-anchor="middle" font-size="12px"><text x="501" y="345">3</text></g><rect x="471" y="331" width="20" height="20" fill="none" stroke="none" pointer-events="none"/><g fill="#000000" font-family="Verdana" text-anchor="middle" font-size="12px"><text x="481" y="345">4</text></g><rect x="311" y="331" width="20" height="20" fill="none" stroke="none" pointer-events="none"/><g fill="#000000" font-family="Verdana" text-anchor="middle" font-size="12px"><text x="321" y="345">12</text></g><rect x="391" y="331" width="20" height="20" fill="none" stroke="none" pointer-events="none"/><g fill="#000000" font-family="Verdana" text-anchor="middle" font-size="12px"><text x="401" y="345">8</text></g><rect x="331" y="331" width="20" height="20" fill="none" stroke="none" pointer-events="none"/><g fill="#000000" font-family="Verdana" text-anchor="middle" font-size="12px"><text x="341" y="345">11</text></g><rect x="411" y="331" width="20" height="20" fill="none" stroke="none" pointer-events="none"/><g fill="#000000" font-family="Verdana" text-anchor="middle" font-size="12px"><text x="421" y="345">7</text></g><rect x="91" y="331" width="20" height="20" fill="none" stroke="none" pointer-events="none"/><g fill="#000000" font-family="Verdana" text-anchor="middle" font-size="12px"><text x="101" y="345">23</text></g><rect x="101" y="1" width="420" height="30" fill="none" stroke="none" pointer-events="none"/><g fill="#000000" font-family="Helvetica" text-anchor="middle" font-size="24px"><text x="311" y="26">Native Mode Memory Addressing</text></g><rect x="171" y="121" width="80" height="20" fill="none" stroke="none" pointer-events="none"/><g fill="#000000" font-family="Helvetica" text-anchor="middle" font-size="12px"><text x="211" y="135">EMU pages</text></g><rect x="91" y="121" width="20" height="20" fill="none" stroke="none" pointer-events="none"/><g fill="#000000" font-family="Verdana" text-anchor="middle" font-size="12px"><text x="101" y="135">11</text></g><rect x="311" y="121" width="20" height="20" fill="none" stroke="none" pointer-events="none"/><g fill="#000000" font-family="Verdana" text-anchor="middle" font-size="12px"><text x="321" y="135">0</text></g><rect x="1" y="234" width="80" height="15" fill="none" stroke="none" pointer-events="none"/><g fill="#000000" font-family="Helvetica" text-anchor="middle" font-size="12px"><text x="41" y="245">4 bit lookup</text></g><rect x="331" y="141" width="20" height="10" fill="none" stroke="none" pointer-events="none"/><g fill="#000000" font-family="Verdana" text-anchor="middle" font-size="12px"><text x="341" y="150">0</text></g><rect x="331" y="291" width="20" height="10" fill="none" stroke="none" pointer-events="none"/><g fill="#000000" font-family="Verdana" text-anchor="middle" font-size="12px"><text x="341" y="300">15</text></g></g></svg>